<?xml version="1.0" encoding="UTF-8"?>
<svg width="295px" height="60px" viewBox="0 0 295 60" version="1.1" xmlns="http://www.w3.org/2000/svg" xmlns:xlink="http://www.w3.org/1999/xlink">
    <title>logo-full</title>
    <g id="Brand-/-Wordmark" stroke="none" stroke-width="1" fill="none" fill-rule="evenodd">
        <g id="comit.sh" transform="translate(-2, -18)" fill="#000000" fill-rule="nonzero">
            <path d="M34.08,61.48 C35.04,62.28 35.84,63.28 36.48,64.48 C37.12,65.68 37.44,66.8666667 37.44,68.04 C37.44,69.0533333 37.1733333,69.9333333 36.64,70.68 C34.9333333,73.08 32.8266667,74.8 30.32,75.84 C27.8133333,76.88 24.8,77.4 21.28,77.4 C17.6533333,77.4 14.4133333,76.56 11.56,74.88 C8.70666667,73.2 6.49333333,70.8533333 4.92,67.84 C3.34666667,64.8266667 2.56,61.4 2.56,57.56 C2.56,53.88 3.37333333,50.6 5,47.72 C6.62666667,44.84 8.88,42.5866667 11.76,40.96 C14.64,39.3333333 17.8933333,38.52 21.52,38.52 C24.1333333,38.52 26.52,38.9866667 28.68,39.92 C30.84,40.8533333 32.7466667,42.1733333 34.4,43.88 C35.7866667,45.32 36.9066667,47.0266667 37.76,49 C37.8666667,49.32 37.92,49.56 37.92,49.72 C37.92,50.36 37.2533333,50.8666667 35.92,51.24 C35.0133333,51.5066667 34.2266667,51.7066667 33.56,51.84 C32.8933333,51.9733333 32.0533333,52.12 31.04,52.28 L30.32,52.36 C29.52,52.36 28.9333333,52.0133333 28.56,51.32 C28.1333333,50.36 27.7333333,49.64 27.36,49.16 C26.9866667,48.68 26.48,48.2533333 25.84,47.88 C24.7733333,47.08 23.3866667,46.68 21.68,46.68 C18.9066667,46.68 16.56,47.7333333 14.64,49.84 C12.72,51.9466667 11.76,54.7866667 11.76,58.36 C11.76,61.8266667 12.6933333,64.52 14.56,66.44 C16.4266667,68.36 18.8266667,69.32 21.76,69.32 C23.36,69.32 24.76,69.0133333 25.96,68.4 C27.16,67.7866667 28.4533333,66.92 29.84,65.8 C30.48,65.16 31.16,64.36 31.88,63.4 C32.6,62.44 33.0666667,61.6933333 33.28,61.16 C33.3866667,61 33.4933333,60.9733333 33.6,61.08 L34.08,61.48 Z" id="路径"></path>
            <path d="M62.56,46.44 C60.96,46.28 59.4133333,46.7066667 57.92,47.72 C56.4266667,48.7333333 55.2,50.1866667 54.24,52.08 C53.28,53.9733333 52.8,56.04 52.8,58.28 C52.8,60.52 53.2266667,62.48 54.08,64.16 C54.9333333,65.84 56.04,67.1466667 57.4,68.08 C58.76,69.0133333 60.16,69.48 61.6,69.48 C62.8266667,69.48 64.1333333,68.9733333 65.52,67.96 C66.9066667,66.9466667 68.0666667,65.52 69,63.68 C69.9333333,61.84 70.4,59.8 70.4,57.56 C70.4,54.52 69.64,51.9866667 68.12,49.96 C66.6,47.9333333 64.7466667,46.76 62.56,46.44 Z M62,38.52 C65.5733333,38.52 68.72,39.36 71.44,41.04 C74.16,42.72 76.28,45.08 77.8,48.12 C79.32,51.16 80.08,54.6533333 80.08,58.6 C80.08,62.1733333 79.28,65.3866667 77.68,68.24 C76.08,71.0933333 73.84,73.3333333 70.96,74.96 C68.08,76.5866667 64.8266667,77.4 61.2,77.4 C57.68,77.4 54.5466667,76.5466667 51.8,74.84 C49.0533333,73.1333333 46.92,70.7733333 45.4,67.76 C43.88,64.7466667 43.12,61.3466667 43.12,57.56 C43.12,53.88 43.92,50.6 45.52,47.72 C47.12,44.84 49.36,42.5866667 52.24,40.96 C55.12,39.3333333 58.3733333,38.52 62,38.52 Z" id="形状"></path>
            <path d="M116.32,74.76 C116.32,75.4 116.08,75.9333333 115.6,76.36 C115.12,76.7866667 114.56,77 113.92,77 L108.96,77 C108.32,77 107.76,76.7866667 107.28,76.36 C106.8,75.9333333 106.56,75.4 106.56,74.76 C106.56,74.3866667 106.613333,73.8266667 106.72,73.08 L106.8,71.4 L106.8,66.28 C106.8,60.84 106.68,56.8933333 106.44,54.44 C106.2,51.9866667 105.773333,50.3333333 105.16,49.48 C104.546667,48.6266667 103.546667,48.2 102.16,48.2 C98.7466667,48.2 96.9866667,50.9466667 96.88,56.44 L96.88,63.4 L96.88,63.64 L96.88,71.4 L97.12,74.6 C97.1733333,75.24 96.96,75.8 96.48,76.28 C96,76.76 95.4133333,77 94.72,77 L89.84,77 C89.2,77 88.6266667,76.7866667 88.12,76.36 C87.6133333,75.9333333 87.36,75.4 87.36,74.76 L87.68,71.4 L87.68,63.64 C87.5733333,57.9333333 87.44,53.92 87.28,51.6 C87.12,49.28 86.88,47.1333333 86.56,45.16 L86.08,41.64 C85.9733333,40.5733333 86.1066667,39.68 86.48,38.96 C86.8533333,38.24 87.52,37.88 88.48,37.88 C88.8533333,37.88 89.3066667,37.96 89.84,38.12 L94.64,39.48 C95.2266667,39.6933333 95.7333333,40.0133333 96.16,40.44 C96.5866667,40.8666667 96.8533333,41.3466667 96.96,41.88 C98.3466667,40.6533333 99.4933333,39.8133333 100.4,39.36 C101.306667,38.9066667 102.56,38.68 104.16,38.68 C105.226667,38.68 106.106667,38.7333333 106.8,38.84 C109.893333,39.2133333 112.4,40.92 114.32,43.96 L114.4,43.8 C115.946667,41.9866667 117.4,40.6666667 118.76,39.84 C120.12,39.0133333 121.786667,38.6 123.76,38.6 C124.186667,38.6 124.933333,38.6533333 126,38.76 C127.866667,38.9733333 129.506667,39.7066667 130.92,40.96 C132.333333,42.2133333 133.413333,43.68 134.16,45.36 C134.906667,47.04 135.28,48.5733333 135.28,49.96 L135.28,61.48 C135.28,64.68 135.4,66.8666667 135.64,68.04 C135.88,69.2133333 136.426667,69.8 137.28,69.8 C137.813333,69.8 138.586667,69.5866667 139.6,69.16 C139.706667,69.1066667 139.8,69.1066667 139.88,69.16 C139.96,69.2133333 140,69.2933333 140,69.4 C139.626667,72.28 138.88,74.2666667 137.76,75.36 C136.64,76.4533333 134.906667,77 132.56,77 C130.693333,77 129.133333,76.24 127.88,74.72 C126.626667,73.2 126,71.4266667 126,69.4 L126,60.04 C126,57 125.88,54.6533333 125.64,53 C125.4,51.3466667 124.946667,50.1333333 124.28,49.36 C123.613333,48.5866667 122.64,48.2 121.36,48.2 C119.706667,48.2 118.426667,48.9466667 117.52,50.44 C116.613333,51.9333333 116.133333,54.12 116.08,57 L116.08,71.4 C116.08,71.7733333 116.133333,72.3333333 116.24,73.08 L116.32,74.76 Z" id="路径"></path>
            <path d="M153.28,32.28 C152.746667,32.6533333 152.106667,32.8666667 151.36,32.92 C151.093333,32.9733333 150.693333,33 150.16,33 C148.453333,33 147.12,32.5333333 146.16,31.6 C145.2,30.6666667 144.72,29.2933333 144.72,27.48 L144.8,25.72 C144.8,25.08 144.693333,24.3333333 144.48,23.48 C144.426667,23.32 144.333333,23.0666667 144.2,22.72 C144.066667,22.3733333 143.973333,22.0666667 143.92,21.8 C143.92,21.16 144.506667,20.84 145.68,20.84 C147.92,20.84 149.706667,21.16 151.04,21.8 C152.32,22.3333333 153.373333,23.1066667 154.2,24.12 C155.026667,25.1333333 155.44,26.28 155.44,27.56 C155.44,29.64 154.72,31.2133333 153.28,32.28 Z M144.08,41.64 C143.973333,40.5733333 144.106667,39.68 144.48,38.96 C144.853333,38.24 145.52,37.88 146.48,37.88 C146.853333,37.88 147.306667,37.96 147.84,38.12 L152.64,39.48 C153.386667,39.7466667 154,40.16 154.48,40.72 C154.96,41.28 155.173333,41.88 155.12,42.52 C154.96,44.92 154.88,48.2266667 154.88,52.44 L154.88,58.68 C154.88,64.28 156.053333,67.08 158.4,67.08 C159.093333,67.08 159.866667,66.84 160.72,66.36 C160.826667,66.3066667 160.933333,66.3066667 161.04,66.36 C161.146667,66.4133333 161.2,66.4933333 161.2,66.6 C160.72,70.12 159.92,72.7333333 158.8,74.44 C157.68,76.1466667 156,77 153.76,77 C150.613333,77 148.48,76.32 147.36,74.96 C146.24,73.6 145.68,71.7466667 145.68,69.4 L145.68,63.64 C145.626667,57.88 145.506667,53.8133333 145.32,51.44 C145.133333,49.0666667 144.88,46.9733333 144.56,45.16 L144.08,41.64 Z" id="形状"></path>
            <path d="M162.56,41.64 C162.506667,40.7866667 162.68,40.12 163.08,39.64 C163.48,39.16 164.08,38.9466667 164.88,39 C167.866667,39.16 170.506667,39.2133333 172.8,39.16 C172.693333,36.92 172.426667,34.3066667 172,31.32 C171.786667,29.8266667 171.626667,28.6266667 171.52,27.72 C171.413333,26.6533333 171.546667,25.76 171.92,25.04 C172.293333,24.32 172.96,23.96 173.92,23.96 C174.293333,23.96 174.746667,24.04 175.28,24.2 L180.08,25.56 C180.773333,25.8266667 181.36,26.24 181.84,26.8 C182.32,27.36 182.533333,27.96 182.48,28.6 C182.373333,31.0533333 182.32,34.36 182.32,38.52 L182.32,39.16 L184.96,39.16 C185.973333,39.16 186.973333,39.0933333 187.96,38.96 C188.946667,38.8266667 189.546667,38.76 189.76,38.76 C190.346667,38.76 190.853333,38.8666667 191.28,39.08 C191.706667,39.2933333 192.053333,39.7466667 192.32,40.44 C192.8,41.5066667 193.253333,43 193.68,44.92 C193.84,45.72 193.666667,46.3866667 193.16,46.92 C192.653333,47.4533333 192,47.6933333 191.2,47.64 C188.8,47.4266667 186.693333,47.32 184.88,47.32 L182.32,47.32 L182.32,58.68 C182.32,61.6666667 182.68,63.8133333 183.4,65.12 C184.12,66.4266667 185.28,67.08 186.88,67.08 C187.946667,67.08 189.226667,66.84 190.72,66.36 C190.826667,66.3066667 190.933333,66.3066667 191.04,66.36 C191.146667,66.4133333 191.2,66.4933333 191.2,66.6 C190.826667,69.8 189.666667,72.3333333 187.72,74.2 C185.773333,76.0666667 183.6,77 181.2,77 C178.053333,77 175.92,76.32 174.8,74.96 C173.68,73.6 173.12,71.7466667 173.12,69.4 L173.12,49.72 L173.04,47.56 C172.133333,47.56 171.213333,47.6 170.28,47.68 C169.346667,47.76 168.24,47.9066667 166.96,48.12 C166.106667,48.28 165.453333,48.16 165,47.76 C164.546667,47.36 164.186667,46.8133333 163.92,46.12 C163.226667,44.68 162.773333,43.1866667 162.56,41.64 Z" id="路径"></path>
            <path d="M211.52,76.36 C210.986667,76.68 210.346667,76.8933333 209.6,77 C209.333333,77.0533333 208.933333,77.08 208.4,77.08 C206.693333,77.08 205.333333,76.6 204.32,75.64 C203.306667,74.68 202.8,73.2933333 202.8,71.48 C202.8,68.8133333 203.706667,67.0533333 205.52,66.2 C206.48,65.7733333 207.333333,65.56 208.08,65.56 C208.72,65.56 209.36,65.6933333 210,65.96 C212.453333,66.8133333 213.68,68.68 213.68,71.56 C213.68,73.6933333 212.96,75.2933333 211.52,76.36 Z" id="路径"></path>
            <path d="M224,49.48 C224,47.7733333 224.493333,46.08 225.48,44.4 C226.466667,42.72 228,41.32 230.08,40.2 C232.16,39.08 234.746667,38.52 237.84,38.52 C241.733333,38.52 244.786667,39.32 247,40.92 C249.213333,42.52 250.746667,44.2533333 251.6,46.12 C252.346667,47.7733333 252.613333,49.1066667 252.4,50.12 C252.026667,50.8666667 251.28,51.3466667 250.16,51.56 C249.626667,51.6666667 249.146667,51.72 248.72,51.72 C247.653333,51.72 246.613333,51.5066667 245.6,51.08 C245.12,50.92 244.746667,50.52 244.48,49.88 C244.266667,49.1866667 244.066667,48.6533333 243.88,48.28 C243.693333,47.9066667 243.44,47.56 243.12,47.24 C241.893333,46.12 240.373333,45.56 238.56,45.56 C237.12,45.56 235.813333,45.88 234.64,46.52 C233.466667,47.16 232.88,48.12 232.88,49.4 C232.88,49.9866667 233.04,50.6533333 233.36,51.4 C233.733333,52.36 234.706667,53.1466667 236.28,53.76 C237.853333,54.3733333 240.213333,55.1066667 243.36,55.96 L245.52,56.52 C248.08,57.2666667 250.066667,58.6 251.48,60.52 C252.893333,62.44 253.6,64.5466667 253.6,66.84 C253.6,68.6533333 253.173333,70.3066667 252.32,71.8 C251.04,74.2 249.053333,75.7466667 246.36,76.44 C243.666667,77.1333333 240.533333,77.4533333 236.96,77.4 C234.133333,77.3466667 231.56,76.8933333 229.24,76.04 C226.92,75.1866667 225.466667,74.0666667 224.88,72.68 C224.506667,71.9333333 224.32,71.08 224.32,70.12 C224.32,68.84 224.64,67.16 225.28,65.08 C225.28,65.0266667 225.306667,64.9866667 225.36,64.96 C225.413333,64.9333333 225.466667,64.9466667 225.52,65 C226.8,66.28 228.32,67.3066667 230.08,68.08 C231.84,68.8533333 233.626667,69.32 235.44,69.48 C235.92,69.5333333 236.613333,69.56 237.52,69.56 C239.333333,69.56 240.826667,69.3333333 242,68.88 C243.173333,68.4266667 243.813333,67.7733333 243.92,66.92 L244,66.28 C244,65.0533333 243.453333,64.16 242.36,63.6 C241.266667,63.04 239.573333,62.4933333 237.28,61.96 L235.2,61.48 C232.906667,60.84 231.026667,60.1866667 229.56,59.52 C228.093333,58.8533333 226.88,57.8266667 225.92,56.44 C225.226667,55.3733333 224.733333,54.1733333 224.44,52.84 C224.146667,51.5066667 224,50.3866667 224,49.48 Z" id="路径"></path>
            <path d="M292,61.48 C292,64.7333333 292.133333,66.9333333 292.4,68.08 C292.666667,69.2266667 293.226667,69.8 294.08,69.8 C294.56,69.8 295.306667,69.5866667 296.32,69.16 C296.426667,69.1066667 296.533333,69.1066667 296.64,69.16 C296.746667,69.2133333 296.8,69.2933333 296.8,69.4 C296.426667,72.28 295.68,74.2666667 294.56,75.36 C293.44,76.4533333 291.706667,77 289.36,77 C287.44,77 285.866667,76.24 284.64,74.72 C283.413333,73.2 282.8,71.4266667 282.8,69.4 L282.8,60.04 C282.8,56.84 282.666667,54.4533333 282.4,52.88 C282.133333,51.3066667 281.56,50.1333333 280.68,49.36 C279.8,48.5866667 278.426667,48.2 276.56,48.2 C274.8,48.2 273.346667,48.9866667 272.2,50.56 C271.053333,52.1333333 270.453333,54.3333333 270.4,57.16 L270.4,57.72 L270.4,71.48 L270.64,74.92 C270.64,75.56 270.4,76.08 269.92,76.48 C269.44,76.88 268.88,77.08 268.24,77.08 L263.12,77.08 C262.48,77.08 261.92,76.8666667 261.44,76.44 C260.96,76.0133333 260.72,75.48 260.72,74.84 L260.96,71.48 L260.96,66.36 C260.96,51.2133333 260.88,41.2666667 260.72,36.52 C260.56,31.7733333 260.32,28.2 260,25.8 L259.6,22.68 C259.493333,21.6133333 259.64,20.72 260.04,20 C260.44,19.28 261.12,18.92 262.08,18.92 L263.36,19.08 L268.16,20.52 C268.853333,20.7333333 269.44,21.12 269.92,21.68 C270.4,22.24 270.613333,22.84 270.56,23.48 C270.453333,25.9333333 270.4,29.2666667 270.4,33.48 L270.4,42.2 C273.12,39.8 276.453333,38.6 280.4,38.6 C280.933333,38.6 281.733333,38.6533333 282.8,38.76 C284.666667,38.9733333 286.293333,39.7066667 287.68,40.96 C289.066667,42.2133333 290.133333,43.68 290.88,45.36 C291.626667,47.04 292,48.5733333 292,49.96 L292,61.48 Z" id="路径"></path>
        </g>
    </g>
</svg>